<?xml version="1.0" encoding="UTF-8"?>
<svg id="Layer_1" data-name="Layer 1" xmlns="http://www.w3.org/2000/svg" viewBox="0 0 1152 1152">
  <defs>
    <style>
      .cls-1 {
        fill: #fff;
      }

      .cls-2 {
        fill: #4c4c4c;
      }

      .cls-3 {
        fill: #c4c4c4;
      }

      .cls-4 {
        fill: gray;
      }
    </style>
  </defs>
  <path d="M976.92,535.18l.9,314.33c.02,5.75-3.05,11.07-8.04,13.93l-401.07,229.87c-4.98,2.85-11.1,2.82-16.05-.08l-395.96-232.12c-4.81-2.82-7.81-7.94-7.91-13.52l-1.66-94.8,414.9,67.31,414.89-284.91Z"/>
  <path class="cls-4" d="M976.92,535.18l170.47-118.91c7.9-5.51,5.15-17.83-4.35-19.46l-163.3-27.93v81.57l-2.82,84.73Z"/>
  <path class="cls-3" d="M147.13,752.78l-138.48-25.49c-9.04-1.66-11.77-13.3-4.42-18.81l140.66-105.47v69.12l2.24,80.65Z"/>
  <path class="cls-2" d="M562.31,526.55l-.03,209.46,417.45-285.56v-153.48c0-2.87-.77-5.63-2.16-8.03l-415.26,237.61Z"/>
  <path class="cls-4" d="M562.28,735.99l.03-209.44-415.28-238.76c-1.26,2.16-2.01,4.62-2.15,7.19v377.15l417.37,63.88.02-.02Z"/>
  <path class="cls-1" d="M973.14,283.92L568.77,52.2c-4.64-2.1-10.04-1.88-14.52.68l-401.13,229.07c-2.52,1.44-4.54,3.5-5.94,5.92l415.13,238.68,415.38-237.68c-1.14-1.93-2.68-3.62-4.55-4.95Z"/>
  <polygon class="cls-1" points="144.88 672.13 147.13 752.78 562.03 820.08 976.92 535.18 979.73 450.45 562.28 736.01 144.88 672.13"/>
</svg>